<svg xmlns="http://www.w3.org/2000/svg" version="1.1" xmlns:xlink="http://www.w3.org/1999/xlink" xmlns:svgjs="http://svgjs.dev/svgjs" width="100%" height="100%" viewBox="0 0 1000 600"><rect width="1000" height="600" x="0" y="0" fill="hsl(var(--hue), 50%, 80%)"/><g><circle r="166.66666666666666" cx="505.7934672037761" cy="528.0156459611457" fill="#ace2e1" transform="matrix(0.3685937267435446,0,0,0.3685937267435446,0,105.3767490258106)"/><path d="M572.1602305572821 603.0156116504689L517.8357361310991 603.0156116504689L517.8357361310991 596.4183894917983L521.9392714451047 596.4183894917983Q525.7902815090177 596.4183894917983 526.7056855406037 593.3565208344248Q527.6210895721896 590.2946521770513 523.959473445846 585.2757128314598L523.959473445846 585.2757128314598L481.25114052392524 525.3009659344534L496.2448272481768 511.41207717935725L544.666543953444 575.963844234293Q548.9594732050192 581.8666219552089 553.1892711440712 586.538339081923Q557.3875034268616 591.2100562086372 562.0276548973142 593.798440022087Q566.6993720240284 596.4183894917983 572.1602305572821 596.4183894917983L572.1602305572821 596.4183894917983L572.1602305572821 603.0156116504689ZM495.32942321659095 603.0156116504689L439.42664597732875 603.0156116504689L439.42664597732875 596.4183894917983Q447.8231105429096 596.4183894917983 451.4847266692532 595.4082884914277Q455.1147771393351 594.3666218347954 456.030181170921 591.4310158024683Q456.9140195462453 588.4638441138796 456.9140195462453 582.7820259867948L456.9140195462453 582.7820259867948L456.9140195462453 473.4701583529354Q456.9140195462453 467.56738063201954 456.030181170921 464.60020894343074Q455.1147771393351 461.6646029111036 451.4847266692532 460.62293625447137Q447.8231105429096 459.6128352541008 439.42664597732875 459.6128352541008L439.42664597732875 459.6128352541008L439.42664597732875 453.01561309543007L495.32942321659095 453.01561309543007L495.32942321659095 459.6128352541008Q487.1539182448411 459.6128352541008 483.39760514971283 460.62293625447137Q479.64129205458454 461.6646029111036 478.75745367926027 464.60020894343074Q477.84204964767434 467.56738063201954 477.84204964767434 473.4701583529354L477.84204964767434 473.4701583529354L477.84204964767434 582.7820259867948Q477.84204964767434 588.4638441138796 478.75745367926027 591.4310158024683Q479.64129205458454 594.3666218347954 483.39760514971283 595.4082884914277Q487.1539182448411 596.4183894917983 495.32942321659095 596.4183894917983L495.32942321659095 596.4183894917983L495.32942321659095 603.0156116504689ZM534.6602309185224 478.9310168861891L474.8748779590856 536.1911173446993L474.8748779590856 526.8792487475325L531.9140188237648 468.9247038512675Q535.5756349501083 465.2946533811855 535.5756349501083 462.45374431764316Q535.5756349501083 459.6128352541008 531.2511400422715 459.6128352541008L531.2511400422715 459.6128352541008L524.2119986959386 459.6128352541008L524.2119986959386 453.01561309543007L567.3938164617832 453.01561309543007L567.3938164617832 459.6128352541008Q561.7119983346985 459.6128352541008 557.0402812079843 461.4120776610109Q552.3685640812702 463.2428857241827 547.2549277668937 467.44111800697317Q542.1412914525174 471.6393502897636 534.6602309185224 478.9310168861891L534.6602309185224 478.9310168861891Z " fill="white" transform="matrix(0.3685937267435446,0,0,0.3685937267435446,0,105.3767490258106)"/><path d="M880.2508156175455 600.4702270653082L829.31356256989 600.4702270653082L829.31356256989 594.2843549636465L833.161234212072 594.2843549636465Q836.772126060889 594.2843549636465 837.6304528118372 591.4133999690953Q838.4887795627856 588.5424449745441 835.0554725589924 583.8364465814137L835.0554725589924 583.8364465814137L795.010090006129 527.6012456572153L809.0688902371786 514.5783570221378L854.4714156149262 575.1051917010777Q858.4966721021319 580.6399193709857 862.4627336409965 585.0203455482391Q866.3991977056903 589.4007717254923 870.7500264087731 591.827764607484Q875.1304525860264 594.2843549636465 880.2508156175455 594.2843549636465L880.2508156175455 594.2843549636465L880.2508156175455 600.4702270653082ZM808.2105634862303 600.4702270653082L755.7934367300431 600.4702270653082L755.7934367300431 594.2843549636465Q763.6663648594309 594.2843549636465 767.0996718632241 593.3372357901864Q770.5033813928467 592.3605191425555 771.361708143795 589.6079540446868Q772.1904374205726 586.8257914726474 772.1904374205726 581.4982461219339L772.1904374205726 581.4982461219339L772.1904374205726 479.0021930690396Q772.1904374205726 473.46746539913164 771.361708143795 470.6853028270923Q770.5033813928467 467.9327377292237 767.0996718632241 466.9560210815929Q763.6663648594309 466.00890190813266 755.7934367300431 466.00890190813266L755.7934367300431 466.00890190813266L755.7934367300431 459.8230298064708L808.2105634862303 459.8230298064708L808.2105634862303 466.00890190813266Q800.5448176760368 466.00890190813266 797.0227182497318 466.9560210815929Q793.5006188234267 467.9327377292237 792.6718895466491 470.6853028270923Q791.8135627957008 473.46746539913164 791.8135627957008 479.0021930690396L791.8135627957008 479.0021930690396L791.8135627957008 581.4982461219339Q791.8135627957008 586.8257914726474 792.6718895466491 589.6079540446868Q793.5006188234267 592.3605191425555 797.0227182497318 593.3372357901864Q800.5448176760368 594.2843549636465 808.2105634862303 594.2843549636465L808.2105634862303 594.2843549636465L808.2105634862303 600.4702270653082ZM845.0890163028363 484.1225561005587L789.0314002236615 537.812374246083L789.0314002236615 529.0811193657469L842.5140360499913 474.74015678846877Q845.9473430537845 471.3364472588462 845.9473430537845 468.6726745834894Q845.9473430537845 466.00890190813266 841.892489092408 466.00890190813266L841.892489092408 466.00890190813266L835.2922523523574 466.00890190813266L835.2922523523574 459.8230298064708L875.7815970177803 459.8230298064708L875.7815970177803 466.00890190813266Q870.4540516670668 466.00890190813266 866.0736254898135 467.69595793585864Q861.6931993125601 469.41261143775523 856.8984084969179 473.34907550244907Q852.1036176812758 477.285539567143 845.0890163028363 484.1225561005587L845.0890163028363 484.1225561005587ZM936.9299786543035 602.808427524788L936.9299786543035 602.808427524788Q913.6959614303584 602.808427524788 902.7152985130543 589.2823818288099Q891.7642330699209 575.7563361328315 891.7642330699209 551.6639921579381L891.7642330699209 551.6639921579381Q891.7642330699209 535.0598091482143 896.7662062047575 523.1024295832794Q901.7681793395942 511.17464749251525 911.8905155059499 504.781593071659Q922.0128516723056 498.38853865080273 937.1371609734979 498.38853865080273L937.1371609734979 498.38853865080273Q950.5744142469642 498.38853865080273 958.8913044889115 502.9761471472505Q967.1785972566881 507.5637556436983 971.6774133306241 515.1111115572091Q976.1466319303893 522.6880649448906 977.7448955356034 531.626502144421Q979.3431591408174 540.5945368181222 979.3431591408174 549.5329740176528L979.3431591408174 549.5329740176528L979.3431591408174 551.4568098387438L907.7468691220615 551.4568098387438L907.954051441256 544.6493907794986L959.5128514464948 544.6493907794986Q959.5128514464948 531.8632819377862 957.5002232028919 523.0136371607675Q955.4579974851184 514.163992383749 950.6632066694762 509.5763838873012Q945.868415853834 504.9887753908534 937.3443432926923 504.9887753908534L937.3443432926923 504.9887753908534Q928.4059060931619 504.9887753908534 922.7527885265714 509.9019561031781Q917.0996709599809 514.8151368155029 914.4358982846242 524.2863285501046Q911.7721256092674 533.7575202847065 911.564943290073 547.6091381965617L911.564943290073 547.6091381965617Q911.564943290073 556.7843551894573 912.7488422568982 565.1012454314045Q913.9031437495528 573.4181356733517 917.2180608566634 580.0183724134025Q920.532977963774 586.6186091534531 926.6004601687533 590.466280795635Q932.6679423737327 594.2843549636465 942.4647063242115 594.2843549636465L942.4647063242115 594.2843549636465Q951.639923317107 594.2843549636465 957.5890156254038 590.9990353307065Q963.5677054078712 587.6841182235959 967.1785972566881 582.3565728728823Q970.8190865796757 577.0290275221688 972.7429224007668 571.4942998522607L972.7429224007668 571.4942998522607L978.4848323898691 574.0396826309351Q976.1466319303893 581.2910638027396 971.5590234339415 587.8913005427902Q966.9714149374937 594.4915372828408 958.7729145922291 598.6647811408999Q950.5744142469642 602.808427524788 936.9299786543035 602.808427524788ZM1044.7535770579116 602.808427524788L1044.7535770579116 602.808427524788Q1021.5195598339662 602.808427524788 1010.5684943908328 589.2823818288099Q999.5878314735288 575.7563361328315 999.5878314735288 551.6639921579381L999.5878314735288 551.6639921579381Q999.5878314735288 535.0598091482143 1004.5898046083654 523.1024295832794Q1009.591777743202 511.17464749251525 1019.7141139095578 504.781593071659Q1029.8364500759135 498.38853865080273 1044.9607593771057 498.38853865080273L1044.9607593771057 498.38853865080273Q1058.3980126505721 498.38853865080273 1066.7149028925196 502.9761471472505Q1075.0317931344666 507.5637556436983 1079.5010117342317 515.1111115572091Q1083.9702303339973 522.6880649448906 1085.5684939392113 531.626502144421Q1087.1667575444253 540.5945368181222 1087.1667575444253 549.5329740176528L1087.1667575444253 549.5329740176528L1087.1667575444253 551.4568098387438L1015.5704675256694 551.4568098387438L1015.777649844864 544.6493907794986L1067.3364498501028 544.6493907794986Q1067.3364498501028 531.8632819377862 1065.3238216064997 523.0136371607675Q1063.311193362897 514.163992383749 1058.5164025472545 509.5763838873012Q1053.7216117316125 504.9887753908534 1045.197539170471 504.9887753908534L1045.197539170471 504.9887753908534Q1036.2295044967696 504.9887753908534 1030.576386930179 509.9019561031781Q1024.9528668377593 514.8151368155029 1022.2890941624026 524.2863285501046Q1019.6253214870459 533.7575202847065 1019.3885416936808 547.6091381965617L1019.3885416936808 547.6091381965617Q1019.3885416936808 556.7843551894573 1020.572440660506 565.1012454314045Q1021.7563396273313 573.4181356733517 1025.0416592602714 580.0183724134025Q1028.3565763673819 586.6186091534531 1034.4240585723614 590.466280795635Q1040.4915407773406 594.2843549636465 1050.2883047278192 594.2843549636465L1050.2883047278192 594.2843549636465Q1059.463521720715 594.2843549636465 1065.4422115031825 590.9990353307065Q1071.3913038114792 587.6841182235959 1075.0317931344666 582.3565728728823Q1078.6426849832837 577.0290275221688 1080.5665208043747 571.4942998522607L1080.5665208043747 571.4942998522607L1086.3084307934769 574.0396826309351Q1083.9702303339973 581.2910638027396 1079.3826218375493 587.8913005427902Q1074.7950133411018 594.4915372828408 1066.5965129958367 598.6647811408999Q1058.3980126505721 602.808427524788 1044.7535770579116 602.808427524788ZM1153.4355022124678 600.4702270653082L1104.6292673050975 600.4702270653082L1104.6292673050975 594.2843549636465Q1111.6734661577075 594.2843549636465 1114.6628110489414 593.4260282126982Q1117.652155940175 592.5972989359205 1118.392092794441 590.1407085797581Q1119.1320296487065 587.6841182235959 1119.1320296487065 582.770937511271L1119.1320296487065 582.770937511271L1119.1320296487065 519.284355415268Q1119.1320296487065 513.7496277453602 1117.8593382593695 511.914584346781Q1116.5866468700324 510.10913842237255 1112.9461575470445 510.10913842237255L1112.9461575470445 510.10913842237255L1105.69477637524 510.10913842237255L1105.69477637524 503.7160840015163L1130.8526294202761 499.4540477209454L1136.5945394093787 499.4540477209454L1136.5945394093787 519.4915377344626L1137.2456838411326 519.4915377344626L1137.2456838411326 582.770937511271Q1137.2456838411326 587.8913005427902 1138.1928030145928 590.3478908989526Q1139.1695196622236 592.8044812551149 1142.5732291918462 593.5444181093807Q1145.9769387214687 594.2843549636465 1153.4355022124678 594.2843549636465L1153.4355022124678 594.2843549636465L1153.4355022124678 600.4702270653082ZM1137.2456838411326 540.1505747055628L1136.3873570901842 540.3873544989278L1136.3873570901842 520.7642291237996Q1137.8968282728865 518.0116640259309 1140.027846413172 514.163992383749Q1142.158864553457 510.3163207415669 1145.3553917638856 506.70542889275Q1148.5519189743136 503.09453704393303 1153.0211375740787 500.6379466877707Q1157.4903561738442 498.1813563316083 1163.2322661629464 498.1813563316083L1163.2322661629464 498.1813563316083Q1170.9276094473103 498.1813563316083 1175.0712558311989 502.65057493137357Q1179.214902215087 507.11979353113884 1179.214902215087 515.0223191346972L1179.214902215087 515.0223191346972Q1179.214902215087 520.9714114429939 1176.343947220536 524.8190830851761Q1173.4729922259849 528.666754727358 1167.0799378051283 528.666754727358L1167.0799378051283 528.666754727358Q1161.5452101352203 528.666754727358 1158.7630475631813 525.6774098361243Q1156.0104824653126 522.6880649448906 1156.0104824653126 518.6332109835141L1156.0104824653126 518.6332109835141Q1156.0104824653126 515.4366837730861 1157.2831738546497 513.5128479519951Q1158.5558652439868 511.6186096050747 1159.8285566333238 510.3163207415669Q1161.101248022661 509.04362935222986 1161.101248022661 507.7709379628927L1161.101248022661 507.7709379628927Q1161.101248022661 506.9126112119444 1160.4797010650777 506.37985667687303Q1159.8285566333238 505.8471021418017 1158.3486829247922 505.8471021418017L1158.3486829247922 505.8471021418017Q1155.1521557143642 505.8471021418017 1151.5116663913768 508.5108748171585Q1147.9007745425597 511.17464749251525 1144.5858574354488 515.9694383081574Q1141.300537802509 520.7642291237996 1139.2583120847353 526.9501012254614Q1137.2456838411326 533.1359733271233 1137.2456838411326 540.1505747055628L1137.2456838411326 540.1505747055628ZM1220.1482089930696 602.808427524788L1220.1482089930696 602.808427524788Q1215.2350282807447 602.808427524788 1210.3514450425905 601.0029816003797Q1205.438264330266 599.1975356759712 1202.3601270165204 594.2843549636465Q1199.252392228604 589.4007717254923 1199.252392228604 580.4327370517913L1199.252392228604 580.4327370517913L1199.252392228604 507.5637556436983L1183.7137182890228 507.5637556436983L1183.7137182890228 501.17070122284207Q1191.5866464184105 500.31237447189375 1197.1213740883186 495.9319482946404Q1202.6561017582267 491.5811195915577 1206.08940876202 484.44812831643566Q1209.493118291642 477.285539567143 1210.9729920001737 468.3471023676125L1210.9729920001737 468.3471023676125L1217.1588641018357 468.3471023676125L1217.1588641018357 500.72673911028255L1240.8072459641699 500.72673911028255L1240.8072459641699 507.5637556436983L1217.1588641018357 507.5637556436983L1217.1588641018357 577.2362098413631Q1217.1588641018357 586.4114268342586 1220.0298190963867 589.9335262605638Q1222.9007740909378 593.4260282126982 1228.0211371224573 593.4260282126982L1228.0211371224573 593.4260282126982Q1231.6616264454447 593.4260282126982 1235.2725182942618 591.6205822882897Q1238.883410143079 589.8151363638812 1241.014428283364 588.3352626553498L1241.014428283364 588.3352626553498L1243.3822262170147 593.4260282126982Q1240.8072459641699 595.3498640337892 1237.5219263312297 597.5992720707571Q1234.2070092241192 599.8190826335543 1230.0633628402306 601.3285538162567Q1225.8901189821718 602.808427524788 1220.1482089930696 602.808427524788ZM1362.068097641244 600.4702270653082L1315.1856985549648 600.4702270653082L1315.1856985549648 594.2843549636465Q1321.7859352950154 594.2843549636465 1324.7752801862493 593.4260282126982Q1327.7646250774828 592.5972989359205 1328.6229518284313 590.22950100227Q1329.4516811052085 587.8913005427902 1329.4516811052085 583.2148996238305L1329.4516811052085 583.2148996238305L1329.4516811052085 531.4193198252267Q1329.4516811052085 525.0262654043704 1327.5574427582883 519.9059023728513Q1325.6336069371973 514.8151368155029 1321.253180759944 511.7074020275866Q1316.9023520568612 508.629264713841 1309.4437885658626 508.629264713841L1309.4437885658626 508.629264713841Q1300.0613892537726 508.629264713841 1293.8755171521107 513.7496277453602Q1287.6896450504487 518.8403933027087 1282.5692820189297 526.9501012254614L1282.5692820189297 526.9501012254614L1282.5692820189297 517.1533372749827Q1287.27528041206 510.9674651733208 1292.6028257627736 506.8238187894325Q1297.9303711134871 502.65057493137357 1304.3234255343432 500.5195567910882Q1310.7164799551997 498.38853865080273 1318.5894080845874 498.38853865080273L1318.5894080845874 498.38853865080273Q1333.0921704281964 498.38853865080273 1340.2251617033185 506.05428446099614Q1347.3581529784406 513.7496277453602 1347.3581529784406 529.0811193657469L1347.3581529784406 529.0811193657469L1347.3581529784406 582.770937511271Q1347.3581529784406 587.6841182235959 1348.2164797293885 590.1407085797581Q1349.074806480337 592.5972989359205 1352.1529437940826 593.4260282126982Q1355.260678581999 594.2843549636465 1362.068097641244 594.2843549636465L1362.068097641244 594.2843549636465L1362.068097641244 600.4702270653082ZM1298.3447357518758 600.4702270653082L1251.669518984791 600.4702270653082L1251.669518984791 594.2843549636465Q1258.7137178374014 594.2843549636465 1261.791855151147 593.4260282126982Q1264.899589939063 592.5972989359205 1265.639526793329 590.1407085797581Q1266.3794636475945 587.6841182235959 1266.3794636475945 582.770937511271L1266.3794636475945 582.770937511271L1266.3794636475945 472.81632096737775Q1266.3794636475945 467.2815932974698 1265.1067722582575 465.47614737306134Q1263.8340808689204 463.67070144865284 1259.9864092267385 463.67070144865284L1259.9864092267385 463.67070144865284L1252.735028054934 463.67070144865284L1252.735028054934 457.2776470277966L1278.544025531724 453.01561074722576L1284.2859355208261 453.01561074722576L1284.2859355208261 583.2148996238305Q1284.2859355208261 587.8913005427902 1285.1442622717746 590.22950100227Q1286.002589022723 592.5972989359205 1288.9623364397858 593.4260282126982Q1291.9516813310197 594.2843549636465 1298.3447357518758 594.2843549636465L1298.3447357518758 594.2843549636465L1298.3447357518758 600.4702270653082ZM1285.351444590969 516.5021928432288L1283.6347910890722 516.5021928432288L1283.6347910890722 514.3711747029433L1285.351444590969 514.3711747029433L1285.351444590969 516.5021928432288ZM1451.7780418524258 602.6012452055937L1451.7780418524258 602.6012452055937Q1447.9599676844146 602.6012452055937 1444.8522328964982 601.535736135451Q1441.7740955827526 600.4702270653082 1439.968649658344 596.8593352164913Q1438.1336062597652 593.2188458935037 1438.1336062597652 585.5531000833104L1438.1336062597652 585.5531000833104L1438.1336062597652 527.6012456572153Q1438.1336062597652 517.360519594177 1433.8715699791942 511.7074020275866Q1429.6095336986236 506.05428446099614 1418.747260678002 506.05428446099614L1418.747260678002 506.05428446099614Q1413.4197153272885 506.05428446099614 1409.0688866242058 507.4453657470158Q1404.6884604469524 508.8364470330354 1402.0246877715954 510.7602828541264Q1399.3609150962388 512.6841186752174 1399.3609150962388 514.3711747029433L1399.3609150962388 514.3711747029433Q1399.3609150962388 516.08782820484 1400.9591787014529 517.1533372749827Q1402.5574423066669 518.2188463451254 1404.155705911881 519.9059023728513Q1405.753969517095 521.6225558747478 1405.753969517095 525.47022751693L1405.753969517095 525.47022751693Q1405.753969517095 529.9394461166951 1403.2085867384208 532.6032187920518Q1400.633606485576 535.2669914674086 1395.9572055666163 535.2669914674086L1395.9572055666163 535.2669914674086Q1391.0440248542914 535.2669914674086 1388.1730698597403 532.2776465761749Q1385.3021148651892 529.2883016849412 1385.3021148651892 523.9607563342277L1385.3021148651892 523.9607563342277Q1385.3021148651892 517.5677019133715 1389.4457612490773 511.82579192426914Q1393.6190051071362 506.05428446099614 1402.3502599874723 502.3250027154966Q1411.0815148678084 498.59572096999716 1424.518768141275 498.59572096999716L1424.518768141275 498.59572096999716Q1439.8502597616616 498.59572096999716 1447.9599676844146 504.89998296834153Q1456.0400781329968 511.17464749251525 1456.0400781329968 528.2227926147985L1456.0400781329968 528.2227926147985L1456.0400781329968 578.7456810240652Q1456.0400781329968 587.269753585207 1457.8455240574053 590.22950100227Q1459.6805674559841 593.2188458935037 1463.7058239431904 593.2188458935037L1463.7058239431904 593.2188458935037Q1465.6296597642813 593.2188458935037 1466.9023511536184 592.8044812551149Q1468.2046400171262 592.3605191425555 1469.6845137256573 591.7389721849721L1469.6845137256573 591.7389721849721L1471.164387434189 597.0665175356858Q1468.8261869747093 598.5463912442173 1464.2385784782614 600.5886169619909Q1459.6805674559841 602.6012452055937 1451.7780418524258 602.6012452055937ZM1406.168334155484 602.808427524788L1406.168334155484 602.808427524788Q1395.0988788156678 602.808427524788 1387.4331330054747 597.5992720707571Q1379.7673871952811 592.3605191425555 1379.7673871952811 581.4982461219339L1379.7673871952811 581.4982461219339Q1379.7673871952811 571.2871175330664 1386.9891708929154 562.6446550752421Q1394.2405520647199 554.0021926174179 1408.417742192452 547.9347104124387Q1422.594932320184 541.8672282074593 1443.2539692912842 539.3218454287851L1443.2539692912842 539.3218454287851L1443.2539692912842 545.7148998496414Q1420.8782788182875 549.7401563368471 1409.8976159009835 557.1987198278462Q1398.9465504578502 564.657283318845 1398.9465504578502 576.3778830904149L1398.9465504578502 576.3778830904149Q1398.9465504578502 583.8364465814137 1403.297379160933 587.5657283269132Q1407.6778053381859 591.2950100724128 1415.550733467574 591.2950100724128L1415.550733467574 591.2950100724128Q1421.3222409308469 591.2950100724128 1426.205824169001 589.1639919321273Q1431.1190048813255 587.032973791842 1435.2626512652137 583.9548364780964Q1439.435895123273 580.8766991643507 1443.04678697209 577.887354273117L1443.04678697209 577.887354273117L1443.04678697209 584.6947733323622Q1437.512059302182 589.8151363638812 1431.8589417355915 593.8699903252576Q1426.205824169001 597.9248442866341 1420.019952067339 600.3518371686258Q1413.8636774398478 602.808427524788 1406.168334155484 602.808427524788ZM1591.5669123603152 600.4702270653082L1544.9212930674012 600.4702270653082L1544.9212930674012 594.2843549636465Q1551.3143474882572 594.2843549636465 1554.2740949053205 593.6628080060633Q1557.263439796554 593.0116635743094 1558.1217665475024 590.6734631148296Q1558.9800932984508 588.3352626553498 1558.9800932984508 583.2148996238305L1558.9800932984508 583.2148996238305L1558.9800932984508 531.4193198252267Q1558.9800932984508 525.0262654043704 1557.0562574773594 519.9059023728513Q1555.1324216562684 514.8151368155029 1550.7815929531857 511.7074020275866Q1546.4011667759328 508.629264713841 1539.1497856041278 508.629264713841L1539.1497856041278 508.629264713841Q1529.3530216536492 508.629264713841 1523.1671495519872 513.9568100645545Q1516.9812774503257 519.284355415268 1512.0976942121715 526.2989567937075L1512.0976942121715 526.2989567937075L1512.0976942121715 517.1533372749827Q1517.2180572436905 510.7602828541264 1522.545602594404 506.58703899606746Q1527.8731479451176 502.4433926121792 1534.1478124692912 500.43076436857626Q1540.422476993465 498.38853865080273 1548.1178202778292 498.38853865080273L1548.1178202778292 498.38853865080273Q1562.5909851472675 498.38853865080273 1569.7239764223896 506.05428446099614Q1576.8865651716824 513.7496277453602 1576.8865651716824 529.0811193657469L1576.8865651716824 529.0811193657469L1576.8865651716824 582.770937511271Q1576.8865651716824 587.6841182235959 1577.71529444846 590.1407085797581Q1578.573621199408 592.5972989359205 1581.6813559873244 593.4260282126982Q1584.75949330107 594.2843549636465 1591.5669123603152 594.2843549636465L1591.5669123603152 594.2843549636465L1591.5669123603152 600.4702270653082ZM1527.8731479451176 600.4702270653082L1481.1979311780328 600.4702270653082L1481.1979311780328 594.2843549636465Q1488.2125325564725 594.2843549636465 1491.201877447706 593.4260282126982Q1494.19122233894 592.5972989359205 1494.9311591932055 590.1407085797581Q1495.6710960474716 587.6841182235959 1495.6710960474716 582.770937511271L1495.6710960474716 582.770937511271L1495.6710960474716 519.284355415268Q1495.6710960474716 513.7496277453602 1494.398404658134 511.914584346781Q1493.125713268797 510.10913842237255 1489.5148214199803 510.10913842237255L1489.5148214199803 510.10913842237255L1482.2634402481758 510.10913842237255L1482.2634402481758 503.7160840015163L1507.3916958190412 499.4540477209454L1513.163203282314 499.4540477209454L1513.163203282314 515.2295014538917L1513.7847502398972 515.2295014538917L1513.7847502398972 583.2148996238305Q1513.7847502398972 588.3352626553498 1514.6430769908457 590.6734631148296Q1515.501403741794 593.0116635743094 1518.5795410555397 593.6628080060633Q1521.6872758434556 594.2843549636465 1527.8731479451176 594.2843549636465L1527.8731479451176 594.2843549636465L1527.8731479451176 600.4702270653082ZM1681.3064540456676 602.6012452055937L1681.3064540456676 602.6012452055937Q1677.4587824034857 602.6012452055937 1674.38064508974 601.535736135451Q1671.2729103018237 600.4702270653082 1669.4674643774156 596.8593352164913Q1667.662018453007 593.2188458935037 1667.662018453007 585.5531000833104L1667.662018453007 585.5531000833104L1667.662018453007 527.6012456572153Q1667.662018453007 517.360519594177 1663.399982172436 511.7074020275866Q1659.137945891865 506.05428446099614 1648.2756728712434 506.05428446099614L1648.2756728712434 506.05428446099614Q1642.9481275205303 506.05428446099614 1638.567701343277 507.4453657470158Q1634.1872751660235 508.8364470330354 1631.5235024906665 510.7602828541264Q1628.85972981531 512.6841186752174 1628.85972981531 514.3711747029433L1628.85972981531 514.3711747029433Q1628.85972981531 516.08782820484 1630.457993420524 517.1533372749827Q1632.056257025738 518.2188463451254 1633.654520630952 519.9059023728513Q1635.252784236166 521.6225558747478 1635.252784236166 525.47022751693L1635.252784236166 525.47022751693Q1635.252784236166 529.9394461166951 1632.7074014574919 532.6032187920518Q1630.1620186788177 535.2669914674086 1625.4560202856874 535.2669914674086L1625.4560202856874 535.2669914674086Q1620.5724370475332 535.2669914674086 1617.6718845788114 532.2776465761749Q1614.8009295842603 529.2883016849412 1614.8009295842603 523.9607563342277L1614.8009295842603 523.9607563342277Q1614.8009295842603 517.5677019133715 1618.9741734423192 511.82579192426914Q1623.1178198262073 506.05428446099614 1631.8490747065434 502.3250027154966Q1640.5803295868795 498.59572096999716 1654.017582860346 498.59572096999716L1654.017582860346 498.59572096999716Q1669.3490744807327 498.59572096999716 1677.4587824034857 504.89998296834153Q1685.5684903262386 511.17464749251525 1685.5684903262386 528.2227926147985L1685.5684903262386 528.2227926147985L1685.5684903262386 578.7456810240652Q1685.5684903262386 587.269753585207 1687.3739362506471 590.22950100227Q1689.1793821750553 593.2188458935037 1693.2342361364317 593.2188458935037L1693.2342361364317 593.2188458935037Q1695.1580719575231 593.2188458935037 1696.4307633468597 592.8044812551149Q1697.7034547361968 592.3605191425555 1699.1833284447284 591.7389721849721L1699.1833284447284 591.7389721849721L1700.6927996274308 597.0665175356858Q1698.3545991679512 598.5463912442173 1693.7669906715032 600.5886169619909Q1689.1793821750553 602.6012452055937 1681.3064540456676 602.6012452055937ZM1635.6967463487254 602.808427524788L1635.6967463487254 602.808427524788Q1624.597693534739 602.808427524788 1616.9319477245458 597.5992720707571Q1609.2662019143522 592.3605191425555 1609.2662019143522 581.4982461219339L1609.2662019143522 581.4982461219339Q1609.2662019143522 571.2871175330664 1616.5175830861567 562.6446550752421Q1623.7689642579617 554.0021926174179 1637.916556911523 547.9347104124387Q1652.093747039255 541.8672282074593 1672.782381484526 539.3218454287851L1672.782381484526 539.3218454287851L1672.782381484526 545.7148998496414Q1650.4066910115293 549.7401563368471 1639.4260280942249 557.1987198278462Q1628.4453651769209 564.657283318845 1628.4453651769209 576.3778830904149L1628.4453651769209 576.3778830904149Q1628.4453651769209 583.8364465814137 1632.8257913541743 587.5657283269132Q1637.176620057257 591.2950100724128 1645.0791456608154 591.2950100724128L1645.0791456608154 591.2950100724128Q1650.821055649918 591.2950100724128 1655.7342363622429 589.1639919321273Q1660.6178196003966 587.032973791842 1664.7910634584555 583.9548364780964Q1668.934709842344 580.8766991643507 1672.5456016911608 577.887354273117L1672.5456016911608 577.887354273117L1672.5456016911608 584.6947733323622Q1667.0108740212531 589.8151363638812 1661.3577564546626 593.8699903252576Q1655.7342363622429 597.9248442866341 1649.548364260581 600.3518371686258Q1643.362492158919 602.808427524788 1635.6967463487254 602.808427524788ZM1822.7823805812827 600.4702270653082L1764.6233438359932 600.4702270653082L1764.6233438359932 594.2843549636465Q1772.4962719653809 594.2843549636465 1775.8999814950034 593.4260282126982Q1779.3332884987967 592.5972989359205 1780.1620177755744 589.8151363638812Q1781.0203445265229 587.032973791842 1781.0203445265229 581.4982461219339L1781.0203445265229 581.4982461219339L1781.0203445265229 478.7950107498452Q1781.0203445265229 473.26028307993727 1780.1620177755744 470.4781205078979Q1779.3332884987967 467.69595793585864 1775.8999814950034 466.867228659081Q1772.4962719653809 466.00890190813266 1764.6233438359932 466.00890190813266L1764.6233438359932 466.00890190813266L1764.6233438359932 459.8230298064708L1827.9027436128017 459.8230298064708Q1860.933524787226 460.03021212566523 1878.9583865571399 477.1967471446311Q1896.9536508528836 494.3336846894263 1896.9536508528836 527.8084279764098L1896.9536508528836 527.8084279764098Q1896.9536508528836 552.1079542704977 1888.2223959725475 568.1793827451501Q1879.4911410922114 584.2804086939733 1862.8573606083169 592.3605191425555Q1846.2235801244224 600.4702270653082 1822.7823805812827 600.4702270653082L1822.7823805812827 600.4702270653082ZM1820.6513624409972 593.4260282126982L1820.6513624409972 593.4260282126982Q1832.3719622125673 593.4260282126982 1842.1983236372166 590.1407085797581Q1851.9950875876953 586.8257914726474 1859.2464687594997 579.2784355591367Q1866.468252457134 571.7014821714553 1870.4343139959983 559.2409455456196Q1874.370778060692 546.7804089197841 1874.370778060692 528.666754727358L1874.370778060692 528.666754727358Q1874.370778060692 510.10913842237255 1869.1320251324905 496.37591040719985Q1863.9228696784598 482.61308491785655 1852.5278421227667 474.9473391076632Q1841.1328145670736 467.2815932974698 1822.5751982620882 467.0744109782754L1822.5751982620882 467.0744109782754Q1812.985616630804 467.0744109782754 1808.309215711844 467.69595793585864Q1803.603217318714 468.3471023676125 1802.1233436101825 470.59651040458044Q1800.6434699016509 472.81632096737775 1800.6434699016509 477.52231936050805L1800.6434699016509 477.52231936050805L1800.6434699016509 577.0290275221688Q1800.6434699016509 583.8364465814137 1802.656098145254 587.4769359044013Q1804.6687263888566 591.0878277532183 1809.04915256611 592.2717267200436Q1813.4295787433634 593.4260282126982 1820.6513624409972 593.4260282126982ZM1964.080722271874 602.808427524788L1964.080722271874 602.808427524788Q1940.846705047929 602.808427524788 1929.866042130625 589.2823818288099Q1918.9149766874916 575.7563361328315 1918.9149766874916 551.6639921579381L1918.9149766874916 551.6639921579381Q1918.9149766874916 535.0598091482143 1923.9169498223282 523.1024295832794Q1928.9189229571648 511.17464749251525 1939.0412591235204 504.781593071659Q1949.1635952898764 498.38853865080273 1964.2879045910686 498.38853865080273L1964.2879045910686 498.38853865080273Q1977.725157864535 498.38853865080273 1986.042048106482 502.9761471472505Q1994.3293408742588 507.5637556436983 1998.8281569481946 515.1111115572091Q2003.2973755479597 522.6880649448906 2004.8956391531738 531.626502144421Q2006.4939027583882 540.5945368181222 2006.4939027583882 549.5329740176528L2006.4939027583882 549.5329740176528L2006.4939027583882 551.4568098387438L1934.8976127396322 551.4568098387438L1935.1047950588268 544.6493907794986L1986.6635950640652 544.6493907794986Q1986.6635950640652 531.8632819377862 1984.6509668204626 523.0136371607675Q1982.6087411026892 514.163992383749 1977.8139502870467 509.5763838873012Q1973.0191594714047 504.9887753908534 1964.4950869102631 504.9887753908534L1964.4950869102631 504.9887753908534Q1955.5566497107325 504.9887753908534 1949.903532144142 509.9019561031781Q1944.2504145775515 514.8151368155029 1941.5866419021945 524.2863285501046Q1938.922869226838 533.7575202847065 1938.7156869076434 547.6091381965617L1938.7156869076434 547.6091381965617Q1938.7156869076434 556.7843551894573 1939.8995858744688 565.1012454314045Q1941.0538873671235 573.4181356733517 1944.368804474234 580.0183724134025Q1947.6837215813448 586.6186091534531 1953.751203786324 590.466280795635Q1959.8186859913035 594.2843549636465 1969.6154499417821 594.2843549636465L1969.6154499417821 594.2843549636465Q1978.7906669346776 594.2843549636465 1984.7397592429743 590.9990353307065Q1990.7184490254417 587.6841182235959 1994.3293408742588 582.3565728728823Q1997.9698301972462 577.0290275221688 1999.8936660183372 571.4942998522607L1999.8936660183372 571.4942998522607L2005.6355760074398 574.0396826309351Q2003.2973755479597 581.2910638027396 1998.7097670515122 587.8913005427902Q1994.1221585550643 594.4915372828408 1985.9236582097997 598.6647811408999Q1977.725157864535 602.808427524788 1964.080722271874 602.808427524788ZM2071.9043206754814 600.4702270653082L2061.6931920866145 600.4702270653082L2029.7279199823333 515.6438660922804Q2027.5969018420478 510.3163207415669 2025.021921589203 508.629264713841Q2022.4765388105284 506.9126112119444 2015.4323399579184 506.9126112119444L2015.4323399579184 506.9126112119444L2015.4323399579184 500.72673911028255L2059.769356265523 500.72673911028255L2059.769356265523 506.9126112119444L2051.245283704382 506.9126112119444Q2048.2559388131476 506.9126112119444 2047.516001958882 508.8364470330354Q2046.7760651046165 510.7602828541264 2047.6047943813942 513.5128479519951L2047.6047943813942 513.5128479519951L2072.111502994676 580.2255547325968L2072.555465107236 580.2255547325968L2096.854991401324 513.3056656328006Q2097.683720678101 510.9674651733208 2097.0621737205183 508.95483692971794Q2096.4110292887644 506.9126112119444 2093.6584641908958 506.9126112119444L2093.6584641908958 506.9126112119444L2084.2760648788053 506.9126112119444L2084.2760648788053 500.72673911028255L2119.8522288319036 500.72673911028255L2119.8522288319036 506.9126112119444Q2113.0448097726585 506.9126112119444 2110.2626472006195 508.8364470330354Q2107.510082102751 510.7602828541264 2105.379063962465 515.6438660922804L2105.379063962465 515.6438660922804L2071.9043206754814 600.4702270653082ZM2175.909844911079 600.4702270653082L2128.58348371224 600.4702270653082L2128.58348371224 594.2843549636465Q2135.4205002456556 594.2843549636465 2138.498637559401 593.4260282126982Q2141.606372347317 592.5972989359205 2142.3463092015827 590.1407085797581Q2143.086246055849 587.6841182235959 2143.086246055849 582.770937511271L2143.086246055849 582.770937511271L2143.086246055849 519.284355415268Q2143.086246055849 513.7496277453602 2141.8135546665117 511.914584346781Q2140.540863277174 510.10913842237255 2136.9003739541868 510.10913842237255L2136.9003739541868 510.10913842237255L2129.4418104631877 510.10913842237255L2129.4418104631877 503.7160840015163L2155.457990259172 499.4540477209454L2161.1999002482753 499.4540477209454L2161.1999002482753 582.770937511271Q2161.1999002482753 587.8913005427902 2162.058226999223 590.3478908989526Q2162.9165537501713 592.8044812551149 2165.9946910639173 593.5444181093807Q2169.0728283776625 594.2843549636465 2175.909844911079 594.2843549636465L2175.909844911079 594.2843549636465L2175.909844911079 600.4702270653082ZM2151.6103186169903 480.7188465709362L2151.6103186169903 480.7188465709362Q2146.282773266277 480.7188465709362 2143.086246055849 477.285539567143Q2139.889718845421 473.88183003752044 2139.889718845421 469.2054291185608L2139.889718845421 469.2054291185608Q2139.889718845421 464.0850660870417 2143.086246055849 460.6813565574191Q2146.282773266277 457.2776470277966 2151.6103186169903 457.2776470277966L2151.6103186169903 457.2776470277966Q2155.2212104658074 457.2776470277966 2157.8849831411644 458.8759106330107Q2160.5487558165214 460.47417423822475 2161.939837102541 463.13794691358146Q2163.3309183885603 465.8017195889382 2163.3309183885603 469.2054291185608L2163.3309183885603 469.2054291185608Q2163.3309183885603 473.88183003752044 2160.0160012814495 477.285539567143Q2156.7306816485097 480.7188465709362 2151.6103186169903 480.7188465709362ZM2311.8510437767854 603.0156098439826L2311.8510437767854 603.0156098439826Q2291.192006805685 603.0156098439826 2276.6004520395636 594.2843549636465Q2262.008897273443 585.5531000833104 2254.2247615665674 569.4520741344871Q2246.440625859692 553.3806456598347 2246.440625859692 531.4193198252267L2246.440625859692 531.4193198252267Q2246.440625859692 509.04362935222986 2254.550333782445 492.32105644582344Q2262.6304442310266 475.5984835394171 2277.754753532219 466.4232665465215Q2292.908660307582 457.2776470277966 2314.218841710436 457.2776470277966L2314.218841710436 457.2776470277966Q2325.2882970502515 457.2776470277966 2331.888533790303 459.17188537471696Q2338.4887705303536 461.095721195808 2342.54362449173 463.13794691358146Q2346.5984784531065 465.1505751571844 2350.002187982728 465.1505751571844L2350.002187982728 465.1505751571844Q2352.133206123014 465.1505751571844 2353.4058975123507 464.2922484062361Q2354.7081863758594 463.4339216552878 2355.1225510142476 462.1612302659507L2355.1225510142476 462.1612302659507L2356.1880600843906 459.8230298064708L2361.1012407967155 459.8230298064708L2363.2322589370006 498.1813563316083L2357.6679337929218 498.1813563316083Q2356.395242403585 493.0609933000892 2353.6426773057165 487.2006934143043Q2350.8605147336766 481.3403935285194 2346.0657239180346 476.1312380744884Q2341.2709331023925 470.89248514628673 2334.137941827271 467.69595793585864Q2327.0049505521483 464.4994307254305 2316.7642244891103 464.4994307254305L2316.7642244891103 464.4994307254305Q2305.250807036735 464.4994307254305 2297.05230669147 468.76146700600134Q2288.8538063462056 473.0235032865722 2283.4078710988097 480.1860920358648Q2277.991533325584 487.31908331098685 2274.8837985376676 496.0503381913229Q2271.8056612239216 504.781593071659 2270.532969834585 513.7496277453602Q2269.230680971077 522.6880649448906 2269.230680971077 530.5609930742785L2269.230680971077 530.5609930742785Q2269.230680971077 542.5183726392132 2271.894453646434 554.1205825141005Q2274.558226321791 565.7227923889877 2280.3297337850636 575.1051917010777Q2286.0716437741658 584.4875910131676 2295.454043086256 590.1407085797581Q2304.8364423983458 595.7938261463486 2318.036915878447 595.7938261463486L2318.036915878447 595.7938261463486Q2323.5716435483555 595.7938261463486 2329.0175787957514 594.4915372828408Q2334.4635140431474 593.2188458935037 2338.4887705303536 590.0223186830757Q2342.54362449173 586.8257914726474 2343.609133561872 581.083881483545L2343.609133561872 581.083881483545L2343.609133561872 552.9366835472753Q2343.609133561872 547.4019558773673 2340.945360886515 544.945365521205Q2338.281588211159 542.5183726392132 2331.474169151914 542.5183726392132L2331.474169151914 542.5183726392132L2328.0704596222913 542.5183726392132L2328.0704596222913 536.3325005375514L2373.8873496384276 536.3325005375514L2373.8873496384276 542.5183726392132L2370.898004747194 542.5183726392132Q2366.8431507858177 542.5183726392132 2365.037704861409 544.5310008828162Q2363.2322589370006 546.5436291264191 2363.2322589370006 551.4568098387438L2363.2322589370006 551.4568098387438L2363.2322589370006 600.8845917036971L2358.9702226564295 600.8845917036971Q2358.111895905481 598.1320266058284 2356.513632300267 596.7409453198088Q2354.915368695053 595.3498640337892 2351.9260238038196 595.3498640337892L2351.9260238038196 595.3498640337892Q2349.1438612317806 595.3498640337892 2345.6513592796455 596.5337630006144Q2342.129259853341 597.688064493269 2337.334469037699 599.1975356759712Q2332.539678222057 600.6774093845028 2326.3538061203944 601.8613083513279Q2320.167934018733 603.0156098439826 2311.8510437767854 603.0156098439826Z " fill="white" transform="matrix(0.3685937267435446,0,0,0.3685937267435446,0,105.3767490258106)"/></g></svg>